<mxfile host="Electron" agent="Mozilla/5.0 (Windows NT 10.0; Win64; x64) AppleWebKit/537.36 (KHTML, like Gecko) draw.io/28.1.2 Chrome/138.0.7204.243 Electron/37.4.0 Safari/537.36" version="28.1.2">
  <diagram name="Página-1" id="9n9ruznMXcrRI17JOg5I">
    <mxGraphModel dx="872" dy="537" grid="1" gridSize="10" guides="1" tooltips="1" connect="1" arrows="1" fold="1" page="1" pageScale="1" pageWidth="827" pageHeight="1169" math="0" shadow="0">
      <root>
        <mxCell id="0" />
        <mxCell id="1" parent="0" />
        <mxCell id="vn6Rgm2jJreaSvJcsQSG-1" value="ESTUDIANTE" style="rounded=1;whiteSpace=wrap;html=1;" parent="1" vertex="1">
          <mxGeometry x="25" y="250" width="120" height="60" as="geometry" />
        </mxCell>
        <mxCell id="vn6Rgm2jJreaSvJcsQSG-2" value="PROFESOR" style="rounded=1;whiteSpace=wrap;html=1;" parent="1" vertex="1">
          <mxGeometry x="670" y="249.21" width="120" height="60" as="geometry" />
        </mxCell>
        <mxCell id="vn6Rgm2jJreaSvJcsQSG-3" value="CURSO" style="rounded=1;whiteSpace=wrap;html=1;" parent="1" vertex="1">
          <mxGeometry x="460" y="250.62" width="120" height="60" as="geometry" />
        </mxCell>
        <mxCell id="vn6Rgm2jJreaSvJcsQSG-4" value="MATRÍCULA" style="rounded=1;whiteSpace=wrap;html=1;" parent="1" vertex="1">
          <mxGeometry x="240" y="249.21" width="120" height="60" as="geometry" />
        </mxCell>
        <mxCell id="vn6Rgm2jJreaSvJcsQSG-5" value="id_estudiante" style="ellipse;whiteSpace=wrap;html=1;" parent="1" vertex="1">
          <mxGeometry x="10" y="172.5" width="80" height="50" as="geometry" />
        </mxCell>
        <mxCell id="vn6Rgm2jJreaSvJcsQSG-6" value="nombre" style="ellipse;whiteSpace=wrap;html=1;" parent="1" vertex="1">
          <mxGeometry x="115" y="172.5" width="60" height="55" as="geometry" />
        </mxCell>
        <mxCell id="vn6Rgm2jJreaSvJcsQSG-7" value="apellido" style="ellipse;whiteSpace=wrap;html=1;" parent="1" vertex="1">
          <mxGeometry x="15" y="330.78" width="70" height="50" as="geometry" />
        </mxCell>
        <mxCell id="vn6Rgm2jJreaSvJcsQSG-8" value="correo" style="ellipse;whiteSpace=wrap;html=1;" parent="1" vertex="1">
          <mxGeometry x="105" y="330" width="70" height="50" as="geometry" />
        </mxCell>
        <mxCell id="vn6Rgm2jJreaSvJcsQSG-9" value="id_profesor" style="ellipse;whiteSpace=wrap;html=1;" parent="1" vertex="1">
          <mxGeometry x="695" y="175" width="70" height="47.5" as="geometry" />
        </mxCell>
        <mxCell id="vn6Rgm2jJreaSvJcsQSG-10" value="nombre" style="ellipse;whiteSpace=wrap;html=1;" parent="1" vertex="1">
          <mxGeometry x="650" y="335" width="70" height="47.5" as="geometry" />
        </mxCell>
        <mxCell id="vn6Rgm2jJreaSvJcsQSG-11" value="especialidad" style="ellipse;whiteSpace=wrap;html=1;" parent="1" vertex="1">
          <mxGeometry x="740" y="332.5" width="80" height="50" as="geometry" />
        </mxCell>
        <mxCell id="vn6Rgm2jJreaSvJcsQSG-12" value="id_curso" style="ellipse;whiteSpace=wrap;html=1;" parent="1" vertex="1">
          <mxGeometry x="440" y="178.12" width="70" height="50" as="geometry" />
        </mxCell>
        <mxCell id="vn6Rgm2jJreaSvJcsQSG-13" value="nombre_curso" style="ellipse;whiteSpace=wrap;html=1;" parent="1" vertex="1">
          <mxGeometry x="520" y="180.62" width="80" height="50" as="geometry" />
        </mxCell>
        <mxCell id="vn6Rgm2jJreaSvJcsQSG-14" value="creditos" style="ellipse;whiteSpace=wrap;html=1;" parent="1" vertex="1">
          <mxGeometry x="440" y="330.62" width="70" height="56.25" as="geometry" />
        </mxCell>
        <mxCell id="vn6Rgm2jJreaSvJcsQSG-15" value="id_profesor" style="ellipse;whiteSpace=wrap;html=1;" parent="1" vertex="1">
          <mxGeometry x="530" y="335" width="70" height="51.87" as="geometry" />
        </mxCell>
        <mxCell id="vn6Rgm2jJreaSvJcsQSG-16" value="id_matricula" style="ellipse;whiteSpace=wrap;html=1;" parent="1" vertex="1">
          <mxGeometry x="220" y="178.59" width="80" height="48.75" as="geometry" />
        </mxCell>
        <mxCell id="vn6Rgm2jJreaSvJcsQSG-17" value="id_estudiante" style="ellipse;whiteSpace=wrap;html=1;" parent="1" vertex="1">
          <mxGeometry x="310" y="178.59" width="83" height="46.25" as="geometry" />
        </mxCell>
        <mxCell id="vn6Rgm2jJreaSvJcsQSG-18" value="id_curso" style="ellipse;whiteSpace=wrap;html=1;" parent="1" vertex="1">
          <mxGeometry x="220" y="330.78" width="70" height="51.87" as="geometry" />
        </mxCell>
        <mxCell id="vn6Rgm2jJreaSvJcsQSG-19" value="fecha_matricula" style="ellipse;whiteSpace=wrap;html=1;" parent="1" vertex="1">
          <mxGeometry x="306.5" y="330.46" width="90" height="50" as="geometry" />
        </mxCell>
        <mxCell id="vn6Rgm2jJreaSvJcsQSG-20" value="Obtiene" style="rhombus;whiteSpace=wrap;html=1;" parent="1" vertex="1">
          <mxGeometry x="160" y="251.41" width="60" height="59.21" as="geometry" />
        </mxCell>
        <mxCell id="vn6Rgm2jJreaSvJcsQSG-21" value="Ingresa" style="rhombus;whiteSpace=wrap;html=1;" parent="1" vertex="1">
          <mxGeometry x="380" y="252.89" width="60" height="60" as="geometry" />
        </mxCell>
        <mxCell id="vn6Rgm2jJreaSvJcsQSG-22" value="Enseña" style="rhombus;whiteSpace=wrap;html=1;" parent="1" vertex="1">
          <mxGeometry x="600" y="247.49999999999997" width="60" height="62.5" as="geometry" />
        </mxCell>
        <mxCell id="vn6Rgm2jJreaSvJcsQSG-23" value="" style="endArrow=none;html=1;rounded=0;entryX=0.5;entryY=1;entryDx=0;entryDy=0;" parent="1" source="vn6Rgm2jJreaSvJcsQSG-1" target="vn6Rgm2jJreaSvJcsQSG-5" edge="1">
          <mxGeometry width="50" height="50" relative="1" as="geometry">
            <mxPoint x="50" y="250.62" as="sourcePoint" />
            <mxPoint x="100" y="200.62" as="targetPoint" />
          </mxGeometry>
        </mxCell>
        <mxCell id="vn6Rgm2jJreaSvJcsQSG-24" value="" style="endArrow=none;html=1;rounded=0;entryX=0.367;entryY=0.973;entryDx=0;entryDy=0;entryPerimeter=0;" parent="1" source="vn6Rgm2jJreaSvJcsQSG-1" target="vn6Rgm2jJreaSvJcsQSG-6" edge="1">
          <mxGeometry width="50" height="50" relative="1" as="geometry">
            <mxPoint x="120" y="249.20999999999998" as="sourcePoint" />
            <mxPoint x="170" y="199.20999999999998" as="targetPoint" />
          </mxGeometry>
        </mxCell>
        <mxCell id="vn6Rgm2jJreaSvJcsQSG-25" value="" style="endArrow=none;html=1;rounded=0;entryX=0.417;entryY=0.967;entryDx=0;entryDy=0;entryPerimeter=0;" parent="1" source="vn6Rgm2jJreaSvJcsQSG-7" target="vn6Rgm2jJreaSvJcsQSG-1" edge="1">
          <mxGeometry width="50" height="50" relative="1" as="geometry">
            <mxPoint x="50" y="330" as="sourcePoint" />
            <mxPoint x="100" y="280" as="targetPoint" />
          </mxGeometry>
        </mxCell>
        <mxCell id="vn6Rgm2jJreaSvJcsQSG-26" value="" style="endArrow=none;html=1;rounded=0;exitX=0.614;exitY=0.02;exitDx=0;exitDy=0;exitPerimeter=0;entryX=0.892;entryY=1.017;entryDx=0;entryDy=0;entryPerimeter=0;" parent="1" source="vn6Rgm2jJreaSvJcsQSG-8" target="vn6Rgm2jJreaSvJcsQSG-1" edge="1">
          <mxGeometry width="50" height="50" relative="1" as="geometry">
            <mxPoint x="390" y="330" as="sourcePoint" />
            <mxPoint x="440" y="280" as="targetPoint" />
          </mxGeometry>
        </mxCell>
        <mxCell id="vn6Rgm2jJreaSvJcsQSG-27" value="" style="endArrow=none;html=1;rounded=0;entryX=0.25;entryY=1;entryDx=0;entryDy=0;exitX=0.657;exitY=0.062;exitDx=0;exitDy=0;exitPerimeter=0;" parent="1" source="vn6Rgm2jJreaSvJcsQSG-18" target="vn6Rgm2jJreaSvJcsQSG-4" edge="1">
          <mxGeometry width="50" height="50" relative="1" as="geometry">
            <mxPoint x="256.5" y="332.5" as="sourcePoint" />
            <mxPoint x="306.5" y="282.5" as="targetPoint" />
          </mxGeometry>
        </mxCell>
        <mxCell id="vn6Rgm2jJreaSvJcsQSG-28" value="" style="endArrow=none;html=1;rounded=0;entryX=0.75;entryY=1;entryDx=0;entryDy=0;exitX=0.594;exitY=-0.009;exitDx=0;exitDy=0;exitPerimeter=0;" parent="1" source="vn6Rgm2jJreaSvJcsQSG-19" target="vn6Rgm2jJreaSvJcsQSG-4" edge="1">
          <mxGeometry width="50" height="50" relative="1" as="geometry">
            <mxPoint x="350" y="332.81" as="sourcePoint" />
            <mxPoint x="400" y="282.81" as="targetPoint" />
          </mxGeometry>
        </mxCell>
        <mxCell id="vn6Rgm2jJreaSvJcsQSG-29" value="" style="endArrow=none;html=1;rounded=0;entryX=0.588;entryY=1.034;entryDx=0;entryDy=0;entryPerimeter=0;exitX=0.25;exitY=0;exitDx=0;exitDy=0;" parent="1" source="vn6Rgm2jJreaSvJcsQSG-4" target="vn6Rgm2jJreaSvJcsQSG-16" edge="1">
          <mxGeometry width="50" height="50" relative="1" as="geometry">
            <mxPoint x="256.5" y="250" as="sourcePoint" />
            <mxPoint x="306.5" y="200" as="targetPoint" />
          </mxGeometry>
        </mxCell>
        <mxCell id="vn6Rgm2jJreaSvJcsQSG-30" value="" style="endArrow=none;html=1;rounded=0;entryX=0.5;entryY=1;entryDx=0;entryDy=0;exitX=0.842;exitY=-0.004;exitDx=0;exitDy=0;exitPerimeter=0;" parent="1" source="vn6Rgm2jJreaSvJcsQSG-4" target="vn6Rgm2jJreaSvJcsQSG-17" edge="1">
          <mxGeometry width="50" height="50" relative="1" as="geometry">
            <mxPoint x="340" y="249.20999999999998" as="sourcePoint" />
            <mxPoint x="390" y="199.20999999999998" as="targetPoint" />
          </mxGeometry>
        </mxCell>
        <mxCell id="vn6Rgm2jJreaSvJcsQSG-31" value="" style="endArrow=none;html=1;rounded=0;entryX=0.358;entryY=0.956;entryDx=0;entryDy=0;entryPerimeter=0;exitX=0.6;exitY=0.007;exitDx=0;exitDy=0;exitPerimeter=0;" parent="1" source="vn6Rgm2jJreaSvJcsQSG-14" target="vn6Rgm2jJreaSvJcsQSG-3" edge="1">
          <mxGeometry width="50" height="50" relative="1" as="geometry">
            <mxPoint x="480" y="330.78" as="sourcePoint" />
            <mxPoint x="530" y="280.78" as="targetPoint" />
          </mxGeometry>
        </mxCell>
        <mxCell id="vn6Rgm2jJreaSvJcsQSG-32" value="" style="endArrow=none;html=1;rounded=0;exitX=0.5;exitY=0;exitDx=0;exitDy=0;" parent="1" source="vn6Rgm2jJreaSvJcsQSG-15" target="vn6Rgm2jJreaSvJcsQSG-3" edge="1">
          <mxGeometry width="50" height="50" relative="1" as="geometry">
            <mxPoint x="570" y="332.81" as="sourcePoint" />
            <mxPoint x="620" y="282.81" as="targetPoint" />
          </mxGeometry>
        </mxCell>
        <mxCell id="vn6Rgm2jJreaSvJcsQSG-33" value="" style="endArrow=none;html=1;rounded=0;exitX=0.192;exitY=0.04;exitDx=0;exitDy=0;exitPerimeter=0;" parent="1" source="vn6Rgm2jJreaSvJcsQSG-3" target="vn6Rgm2jJreaSvJcsQSG-12" edge="1">
          <mxGeometry width="50" height="50" relative="1" as="geometry">
            <mxPoint x="390" y="330" as="sourcePoint" />
            <mxPoint x="440" y="280" as="targetPoint" />
          </mxGeometry>
        </mxCell>
        <mxCell id="vn6Rgm2jJreaSvJcsQSG-34" value="" style="endArrow=none;html=1;rounded=0;exitX=0.683;exitY=0.023;exitDx=0;exitDy=0;exitPerimeter=0;" parent="1" source="vn6Rgm2jJreaSvJcsQSG-3" target="vn6Rgm2jJreaSvJcsQSG-13" edge="1">
          <mxGeometry width="50" height="50" relative="1" as="geometry">
            <mxPoint x="550" y="249.20999999999998" as="sourcePoint" />
            <mxPoint x="600" y="199.20999999999998" as="targetPoint" />
          </mxGeometry>
        </mxCell>
        <mxCell id="vn6Rgm2jJreaSvJcsQSG-35" value="" style="endArrow=none;html=1;rounded=0;entryX=0.333;entryY=1.025;entryDx=0;entryDy=0;entryPerimeter=0;exitX=0.5;exitY=0;exitDx=0;exitDy=0;" parent="1" source="vn6Rgm2jJreaSvJcsQSG-10" target="vn6Rgm2jJreaSvJcsQSG-2" edge="1">
          <mxGeometry width="50" height="50" relative="1" as="geometry">
            <mxPoint x="690" y="335" as="sourcePoint" />
            <mxPoint x="740" y="285" as="targetPoint" />
          </mxGeometry>
        </mxCell>
        <mxCell id="vn6Rgm2jJreaSvJcsQSG-36" value="" style="endArrow=none;html=1;rounded=0;entryX=0.825;entryY=0.992;entryDx=0;entryDy=0;entryPerimeter=0;" parent="1" source="vn6Rgm2jJreaSvJcsQSG-11" target="vn6Rgm2jJreaSvJcsQSG-2" edge="1">
          <mxGeometry width="50" height="50" relative="1" as="geometry">
            <mxPoint x="780" y="332.5" as="sourcePoint" />
            <mxPoint x="830" y="282.5" as="targetPoint" />
          </mxGeometry>
        </mxCell>
        <mxCell id="vn6Rgm2jJreaSvJcsQSG-37" value="" style="endArrow=none;html=1;rounded=0;entryX=0.5;entryY=1;entryDx=0;entryDy=0;" parent="1" target="vn6Rgm2jJreaSvJcsQSG-9" edge="1">
          <mxGeometry width="50" height="50" relative="1" as="geometry">
            <mxPoint x="730" y="253.29000000000002" as="sourcePoint" />
            <mxPoint x="720" y="240" as="targetPoint" />
          </mxGeometry>
        </mxCell>
        <mxCell id="vn6Rgm2jJreaSvJcsQSG-39" value="" style="endArrow=none;html=1;rounded=0;entryX=0;entryY=0.5;entryDx=0;entryDy=0;" parent="1" target="vn6Rgm2jJreaSvJcsQSG-20" edge="1">
          <mxGeometry width="50" height="50" relative="1" as="geometry">
            <mxPoint x="145" y="280.62" as="sourcePoint" />
            <mxPoint x="195" y="230.62" as="targetPoint" />
          </mxGeometry>
        </mxCell>
        <mxCell id="vn6Rgm2jJreaSvJcsQSG-40" value="" style="endArrow=none;html=1;rounded=0;exitX=1;exitY=0.5;exitDx=0;exitDy=0;entryX=0;entryY=0.5;entryDx=0;entryDy=0;" parent="1" source="vn6Rgm2jJreaSvJcsQSG-20" target="vn6Rgm2jJreaSvJcsQSG-4" edge="1">
          <mxGeometry width="50" height="50" relative="1" as="geometry">
            <mxPoint x="390" y="330" as="sourcePoint" />
            <mxPoint x="440" y="280" as="targetPoint" />
          </mxGeometry>
        </mxCell>
        <mxCell id="vn6Rgm2jJreaSvJcsQSG-41" value="" style="endArrow=none;html=1;rounded=0;entryX=0;entryY=0.5;entryDx=0;entryDy=0;" parent="1" target="vn6Rgm2jJreaSvJcsQSG-21" edge="1">
          <mxGeometry width="50" height="50" relative="1" as="geometry">
            <mxPoint x="360" y="280.62" as="sourcePoint" />
            <mxPoint x="410" y="230.62" as="targetPoint" />
          </mxGeometry>
        </mxCell>
        <mxCell id="vn6Rgm2jJreaSvJcsQSG-42" value="" style="endArrow=none;html=1;rounded=0;entryX=0;entryY=0.5;entryDx=0;entryDy=0;exitX=1;exitY=0.5;exitDx=0;exitDy=0;" parent="1" source="vn6Rgm2jJreaSvJcsQSG-21" target="vn6Rgm2jJreaSvJcsQSG-3" edge="1">
          <mxGeometry width="50" height="50" relative="1" as="geometry">
            <mxPoint x="440" y="280.62" as="sourcePoint" />
            <mxPoint x="490" y="230.62" as="targetPoint" />
          </mxGeometry>
        </mxCell>
        <mxCell id="vn6Rgm2jJreaSvJcsQSG-43" value="" style="endArrow=none;html=1;rounded=0;entryX=0;entryY=0.5;entryDx=0;entryDy=0;" parent="1" target="vn6Rgm2jJreaSvJcsQSG-22" edge="1">
          <mxGeometry width="50" height="50" relative="1" as="geometry">
            <mxPoint x="580" y="280.62" as="sourcePoint" />
            <mxPoint x="630" y="230.62" as="targetPoint" />
          </mxGeometry>
        </mxCell>
        <mxCell id="vn6Rgm2jJreaSvJcsQSG-44" value="" style="endArrow=none;html=1;rounded=0;entryX=0;entryY=0.5;entryDx=0;entryDy=0;exitX=1;exitY=0.5;exitDx=0;exitDy=0;" parent="1" source="vn6Rgm2jJreaSvJcsQSG-22" target="vn6Rgm2jJreaSvJcsQSG-2" edge="1">
          <mxGeometry width="50" height="50" relative="1" as="geometry">
            <mxPoint x="660" y="280.62" as="sourcePoint" />
            <mxPoint x="710" y="230.62" as="targetPoint" />
          </mxGeometry>
        </mxCell>
        <mxCell id="jGOI9itsK9u4muc4DSMA-1" value="ESTUDIANTE" style="shape=table;startSize=30;container=1;collapsible=1;childLayout=tableLayout;fixedRows=1;rowLines=0;fontStyle=1;align=center;resizeLast=1;html=1;whiteSpace=wrap;" vertex="1" parent="1">
          <mxGeometry x="15" y="500" width="180" height="180" as="geometry" />
        </mxCell>
        <mxCell id="jGOI9itsK9u4muc4DSMA-2" value="" style="shape=tableRow;horizontal=0;startSize=0;swimlaneHead=0;swimlaneBody=0;fillColor=none;collapsible=0;dropTarget=0;points=[[0,0.5],[1,0.5]];portConstraint=eastwest;top=0;left=0;right=0;bottom=0;html=1;" vertex="1" parent="jGOI9itsK9u4muc4DSMA-1">
          <mxGeometry y="30" width="180" height="30" as="geometry" />
        </mxCell>
        <mxCell id="jGOI9itsK9u4muc4DSMA-3" value="PK" style="shape=partialRectangle;connectable=0;fillColor=none;top=0;left=0;bottom=0;right=0;fontStyle=1;overflow=hidden;html=1;whiteSpace=wrap;" vertex="1" parent="jGOI9itsK9u4muc4DSMA-2">
          <mxGeometry width="60" height="30" as="geometry">
            <mxRectangle width="60" height="30" as="alternateBounds" />
          </mxGeometry>
        </mxCell>
        <mxCell id="jGOI9itsK9u4muc4DSMA-4" value="id_estudiante" style="shape=partialRectangle;connectable=0;fillColor=none;top=0;left=0;bottom=0;right=0;align=left;spacingLeft=6;fontStyle=5;overflow=hidden;html=1;whiteSpace=wrap;" vertex="1" parent="jGOI9itsK9u4muc4DSMA-2">
          <mxGeometry x="60" width="120" height="30" as="geometry">
            <mxRectangle width="120" height="30" as="alternateBounds" />
          </mxGeometry>
        </mxCell>
        <mxCell id="jGOI9itsK9u4muc4DSMA-5" value="" style="shape=tableRow;horizontal=0;startSize=0;swimlaneHead=0;swimlaneBody=0;fillColor=none;collapsible=0;dropTarget=0;points=[[0,0.5],[1,0.5]];portConstraint=eastwest;top=0;left=0;right=0;bottom=0;html=1;" vertex="1" parent="jGOI9itsK9u4muc4DSMA-1">
          <mxGeometry y="60" width="180" height="30" as="geometry" />
        </mxCell>
        <mxCell id="jGOI9itsK9u4muc4DSMA-6" value="" style="shape=partialRectangle;connectable=0;fillColor=none;top=0;left=0;bottom=0;right=0;editable=1;overflow=hidden;html=1;whiteSpace=wrap;" vertex="1" parent="jGOI9itsK9u4muc4DSMA-5">
          <mxGeometry width="60" height="30" as="geometry">
            <mxRectangle width="60" height="30" as="alternateBounds" />
          </mxGeometry>
        </mxCell>
        <mxCell id="jGOI9itsK9u4muc4DSMA-7" value="nombre" style="shape=partialRectangle;connectable=0;fillColor=none;top=0;left=0;bottom=0;right=0;align=left;spacingLeft=6;overflow=hidden;html=1;whiteSpace=wrap;" vertex="1" parent="jGOI9itsK9u4muc4DSMA-5">
          <mxGeometry x="60" width="120" height="30" as="geometry">
            <mxRectangle width="120" height="30" as="alternateBounds" />
          </mxGeometry>
        </mxCell>
        <mxCell id="jGOI9itsK9u4muc4DSMA-8" value="" style="shape=tableRow;horizontal=0;startSize=0;swimlaneHead=0;swimlaneBody=0;fillColor=none;collapsible=0;dropTarget=0;points=[[0,0.5],[1,0.5]];portConstraint=eastwest;top=0;left=0;right=0;bottom=0;html=1;" vertex="1" parent="jGOI9itsK9u4muc4DSMA-1">
          <mxGeometry y="90" width="180" height="30" as="geometry" />
        </mxCell>
        <mxCell id="jGOI9itsK9u4muc4DSMA-9" value="" style="shape=partialRectangle;connectable=0;fillColor=none;top=0;left=0;bottom=0;right=0;editable=1;overflow=hidden;html=1;whiteSpace=wrap;" vertex="1" parent="jGOI9itsK9u4muc4DSMA-8">
          <mxGeometry width="60" height="30" as="geometry">
            <mxRectangle width="60" height="30" as="alternateBounds" />
          </mxGeometry>
        </mxCell>
        <mxCell id="jGOI9itsK9u4muc4DSMA-10" value="apellido" style="shape=partialRectangle;connectable=0;fillColor=none;top=0;left=0;bottom=0;right=0;align=left;spacingLeft=6;overflow=hidden;html=1;whiteSpace=wrap;" vertex="1" parent="jGOI9itsK9u4muc4DSMA-8">
          <mxGeometry x="60" width="120" height="30" as="geometry">
            <mxRectangle width="120" height="30" as="alternateBounds" />
          </mxGeometry>
        </mxCell>
        <mxCell id="jGOI9itsK9u4muc4DSMA-11" value="" style="shape=tableRow;horizontal=0;startSize=0;swimlaneHead=0;swimlaneBody=0;fillColor=none;collapsible=0;dropTarget=0;points=[[0,0.5],[1,0.5]];portConstraint=eastwest;top=0;left=0;right=0;bottom=0;html=1;" vertex="1" parent="jGOI9itsK9u4muc4DSMA-1">
          <mxGeometry y="120" width="180" height="30" as="geometry" />
        </mxCell>
        <mxCell id="jGOI9itsK9u4muc4DSMA-12" value="" style="shape=partialRectangle;connectable=0;fillColor=none;top=0;left=0;bottom=0;right=0;editable=1;overflow=hidden;html=1;whiteSpace=wrap;" vertex="1" parent="jGOI9itsK9u4muc4DSMA-11">
          <mxGeometry width="60" height="30" as="geometry">
            <mxRectangle width="60" height="30" as="alternateBounds" />
          </mxGeometry>
        </mxCell>
        <mxCell id="jGOI9itsK9u4muc4DSMA-13" value="telefono" style="shape=partialRectangle;connectable=0;fillColor=none;top=0;left=0;bottom=0;right=0;align=left;spacingLeft=6;overflow=hidden;html=1;whiteSpace=wrap;" vertex="1" parent="jGOI9itsK9u4muc4DSMA-11">
          <mxGeometry x="60" width="120" height="30" as="geometry">
            <mxRectangle width="120" height="30" as="alternateBounds" />
          </mxGeometry>
        </mxCell>
        <mxCell id="jGOI9itsK9u4muc4DSMA-14" value="" style="shape=tableRow;horizontal=0;startSize=0;swimlaneHead=0;swimlaneBody=0;fillColor=none;collapsible=0;dropTarget=0;points=[[0,0.5],[1,0.5]];portConstraint=eastwest;top=0;left=0;right=0;bottom=0;html=1;" vertex="1" parent="jGOI9itsK9u4muc4DSMA-1">
          <mxGeometry y="150" width="180" height="30" as="geometry" />
        </mxCell>
        <mxCell id="jGOI9itsK9u4muc4DSMA-15" value="" style="shape=partialRectangle;connectable=0;fillColor=none;top=0;left=0;bottom=0;right=0;editable=1;overflow=hidden;html=1;whiteSpace=wrap;" vertex="1" parent="jGOI9itsK9u4muc4DSMA-14">
          <mxGeometry width="60" height="30" as="geometry">
            <mxRectangle width="60" height="30" as="alternateBounds" />
          </mxGeometry>
        </mxCell>
        <mxCell id="jGOI9itsK9u4muc4DSMA-16" value="correo" style="shape=partialRectangle;connectable=0;fillColor=none;top=0;left=0;bottom=0;right=0;align=left;spacingLeft=6;overflow=hidden;html=1;whiteSpace=wrap;" vertex="1" parent="jGOI9itsK9u4muc4DSMA-14">
          <mxGeometry x="60" width="120" height="30" as="geometry">
            <mxRectangle width="120" height="30" as="alternateBounds" />
          </mxGeometry>
        </mxCell>
        <mxCell id="jGOI9itsK9u4muc4DSMA-17" value="MATRICULA" style="shape=table;startSize=30;container=1;collapsible=1;childLayout=tableLayout;fixedRows=1;rowLines=0;fontStyle=1;align=center;resizeLast=1;html=1;whiteSpace=wrap;" vertex="1" parent="1">
          <mxGeometry x="365" y="630" width="180" height="180" as="geometry" />
        </mxCell>
        <mxCell id="jGOI9itsK9u4muc4DSMA-18" value="" style="shape=tableRow;horizontal=0;startSize=0;swimlaneHead=0;swimlaneBody=0;fillColor=none;collapsible=0;dropTarget=0;points=[[0,0.5],[1,0.5]];portConstraint=eastwest;top=0;left=0;right=0;bottom=1;html=1;" vertex="1" parent="jGOI9itsK9u4muc4DSMA-17">
          <mxGeometry y="30" width="180" height="30" as="geometry" />
        </mxCell>
        <mxCell id="jGOI9itsK9u4muc4DSMA-19" value="PK" style="shape=partialRectangle;connectable=0;fillColor=none;top=0;left=0;bottom=0;right=0;fontStyle=1;overflow=hidden;html=1;whiteSpace=wrap;" vertex="1" parent="jGOI9itsK9u4muc4DSMA-18">
          <mxGeometry width="60" height="30" as="geometry">
            <mxRectangle width="60" height="30" as="alternateBounds" />
          </mxGeometry>
        </mxCell>
        <mxCell id="jGOI9itsK9u4muc4DSMA-20" value="id_matricula" style="shape=partialRectangle;connectable=0;fillColor=none;top=0;left=0;bottom=0;right=0;align=left;spacingLeft=6;fontStyle=5;overflow=hidden;html=1;whiteSpace=wrap;" vertex="1" parent="jGOI9itsK9u4muc4DSMA-18">
          <mxGeometry x="60" width="120" height="30" as="geometry">
            <mxRectangle width="120" height="30" as="alternateBounds" />
          </mxGeometry>
        </mxCell>
        <mxCell id="jGOI9itsK9u4muc4DSMA-21" value="" style="shape=tableRow;horizontal=0;startSize=0;swimlaneHead=0;swimlaneBody=0;fillColor=none;collapsible=0;dropTarget=0;points=[[0,0.5],[1,0.5]];portConstraint=eastwest;top=0;left=0;right=0;bottom=0;html=1;" vertex="1" parent="jGOI9itsK9u4muc4DSMA-17">
          <mxGeometry y="60" width="180" height="30" as="geometry" />
        </mxCell>
        <mxCell id="jGOI9itsK9u4muc4DSMA-22" value="FK" style="shape=partialRectangle;connectable=0;fillColor=none;top=0;left=0;bottom=0;right=0;fontStyle=1;overflow=hidden;html=1;whiteSpace=wrap;" vertex="1" parent="jGOI9itsK9u4muc4DSMA-21">
          <mxGeometry width="60" height="30" as="geometry">
            <mxRectangle width="60" height="30" as="alternateBounds" />
          </mxGeometry>
        </mxCell>
        <mxCell id="jGOI9itsK9u4muc4DSMA-23" value="id_estudiante" style="shape=partialRectangle;connectable=0;fillColor=none;top=0;left=0;bottom=0;right=0;align=left;spacingLeft=6;fontStyle=5;overflow=hidden;html=1;whiteSpace=wrap;" vertex="1" parent="jGOI9itsK9u4muc4DSMA-21">
          <mxGeometry x="60" width="120" height="30" as="geometry">
            <mxRectangle width="120" height="30" as="alternateBounds" />
          </mxGeometry>
        </mxCell>
        <mxCell id="jGOI9itsK9u4muc4DSMA-24" value="" style="shape=tableRow;horizontal=0;startSize=0;swimlaneHead=0;swimlaneBody=0;fillColor=none;collapsible=0;dropTarget=0;points=[[0,0.5],[1,0.5]];portConstraint=eastwest;top=0;left=0;right=0;bottom=1;html=1;" vertex="1" parent="jGOI9itsK9u4muc4DSMA-17">
          <mxGeometry y="90" width="180" height="30" as="geometry" />
        </mxCell>
        <mxCell id="jGOI9itsK9u4muc4DSMA-25" value="FK" style="shape=partialRectangle;connectable=0;fillColor=none;top=0;left=0;bottom=0;right=0;fontStyle=1;overflow=hidden;html=1;whiteSpace=wrap;" vertex="1" parent="jGOI9itsK9u4muc4DSMA-24">
          <mxGeometry width="60" height="30" as="geometry">
            <mxRectangle width="60" height="30" as="alternateBounds" />
          </mxGeometry>
        </mxCell>
        <mxCell id="jGOI9itsK9u4muc4DSMA-26" value="id_curso" style="shape=partialRectangle;connectable=0;fillColor=none;top=0;left=0;bottom=0;right=0;align=left;spacingLeft=6;fontStyle=5;overflow=hidden;html=1;whiteSpace=wrap;" vertex="1" parent="jGOI9itsK9u4muc4DSMA-24">
          <mxGeometry x="60" width="120" height="30" as="geometry">
            <mxRectangle width="120" height="30" as="alternateBounds" />
          </mxGeometry>
        </mxCell>
        <mxCell id="jGOI9itsK9u4muc4DSMA-27" value="" style="shape=tableRow;horizontal=0;startSize=0;swimlaneHead=0;swimlaneBody=0;fillColor=none;collapsible=0;dropTarget=0;points=[[0,0.5],[1,0.5]];portConstraint=eastwest;top=0;left=0;right=0;bottom=0;html=1;" vertex="1" parent="jGOI9itsK9u4muc4DSMA-17">
          <mxGeometry y="120" width="180" height="30" as="geometry" />
        </mxCell>
        <mxCell id="jGOI9itsK9u4muc4DSMA-28" value="" style="shape=partialRectangle;connectable=0;fillColor=none;top=0;left=0;bottom=0;right=0;editable=1;overflow=hidden;html=1;whiteSpace=wrap;" vertex="1" parent="jGOI9itsK9u4muc4DSMA-27">
          <mxGeometry width="60" height="30" as="geometry">
            <mxRectangle width="60" height="30" as="alternateBounds" />
          </mxGeometry>
        </mxCell>
        <mxCell id="jGOI9itsK9u4muc4DSMA-29" value="Row 3" style="shape=partialRectangle;connectable=0;fillColor=none;top=0;left=0;bottom=0;right=0;align=left;spacingLeft=6;overflow=hidden;html=1;whiteSpace=wrap;" vertex="1" parent="jGOI9itsK9u4muc4DSMA-27">
          <mxGeometry x="60" width="120" height="30" as="geometry">
            <mxRectangle width="120" height="30" as="alternateBounds" />
          </mxGeometry>
        </mxCell>
        <mxCell id="jGOI9itsK9u4muc4DSMA-30" value="" style="shape=tableRow;horizontal=0;startSize=0;swimlaneHead=0;swimlaneBody=0;fillColor=none;collapsible=0;dropTarget=0;points=[[0,0.5],[1,0.5]];portConstraint=eastwest;top=0;left=0;right=0;bottom=0;html=1;" vertex="1" parent="jGOI9itsK9u4muc4DSMA-17">
          <mxGeometry y="150" width="180" height="30" as="geometry" />
        </mxCell>
        <mxCell id="jGOI9itsK9u4muc4DSMA-31" value="" style="shape=partialRectangle;connectable=0;fillColor=none;top=0;left=0;bottom=0;right=0;editable=1;overflow=hidden;html=1;whiteSpace=wrap;" vertex="1" parent="jGOI9itsK9u4muc4DSMA-30">
          <mxGeometry width="60" height="30" as="geometry">
            <mxRectangle width="60" height="30" as="alternateBounds" />
          </mxGeometry>
        </mxCell>
        <mxCell id="jGOI9itsK9u4muc4DSMA-32" value="Row 4" style="shape=partialRectangle;connectable=0;fillColor=none;top=0;left=0;bottom=0;right=0;align=left;spacingLeft=6;overflow=hidden;html=1;whiteSpace=wrap;" vertex="1" parent="jGOI9itsK9u4muc4DSMA-30">
          <mxGeometry x="60" width="120" height="30" as="geometry">
            <mxRectangle width="120" height="30" as="alternateBounds" />
          </mxGeometry>
        </mxCell>
        <mxCell id="jGOI9itsK9u4muc4DSMA-33" value="CURSO" style="shape=table;startSize=30;container=1;collapsible=1;childLayout=tableLayout;fixedRows=1;rowLines=0;fontStyle=1;align=center;resizeLast=1;html=1;whiteSpace=wrap;" vertex="1" parent="1">
          <mxGeometry x="365" y="420" width="180" height="180" as="geometry" />
        </mxCell>
        <mxCell id="jGOI9itsK9u4muc4DSMA-34" value="" style="shape=tableRow;horizontal=0;startSize=0;swimlaneHead=0;swimlaneBody=0;fillColor=none;collapsible=0;dropTarget=0;points=[[0,0.5],[1,0.5]];portConstraint=eastwest;top=0;left=0;right=0;bottom=0;html=1;" vertex="1" parent="jGOI9itsK9u4muc4DSMA-33">
          <mxGeometry y="30" width="180" height="30" as="geometry" />
        </mxCell>
        <mxCell id="jGOI9itsK9u4muc4DSMA-35" value="PK" style="shape=partialRectangle;connectable=0;fillColor=none;top=0;left=0;bottom=0;right=0;fontStyle=1;overflow=hidden;html=1;whiteSpace=wrap;" vertex="1" parent="jGOI9itsK9u4muc4DSMA-34">
          <mxGeometry width="60" height="30" as="geometry">
            <mxRectangle width="60" height="30" as="alternateBounds" />
          </mxGeometry>
        </mxCell>
        <mxCell id="jGOI9itsK9u4muc4DSMA-36" value="id_curso" style="shape=partialRectangle;connectable=0;fillColor=none;top=0;left=0;bottom=0;right=0;align=left;spacingLeft=6;fontStyle=5;overflow=hidden;html=1;whiteSpace=wrap;" vertex="1" parent="jGOI9itsK9u4muc4DSMA-34">
          <mxGeometry x="60" width="120" height="30" as="geometry">
            <mxRectangle width="120" height="30" as="alternateBounds" />
          </mxGeometry>
        </mxCell>
        <mxCell id="jGOI9itsK9u4muc4DSMA-37" value="" style="shape=tableRow;horizontal=0;startSize=0;swimlaneHead=0;swimlaneBody=0;fillColor=none;collapsible=0;dropTarget=0;points=[[0,0.5],[1,0.5]];portConstraint=eastwest;top=0;left=0;right=0;bottom=0;html=1;" vertex="1" parent="jGOI9itsK9u4muc4DSMA-33">
          <mxGeometry y="60" width="180" height="30" as="geometry" />
        </mxCell>
        <mxCell id="jGOI9itsK9u4muc4DSMA-38" value="FK" style="shape=partialRectangle;connectable=0;fillColor=none;top=0;left=0;bottom=0;right=0;fontStyle=1;overflow=hidden;html=1;whiteSpace=wrap;" vertex="1" parent="jGOI9itsK9u4muc4DSMA-37">
          <mxGeometry width="60" height="30" as="geometry">
            <mxRectangle width="60" height="30" as="alternateBounds" />
          </mxGeometry>
        </mxCell>
        <mxCell id="jGOI9itsK9u4muc4DSMA-39" value="id_matricula" style="shape=partialRectangle;connectable=0;fillColor=none;top=0;left=0;bottom=0;right=0;align=left;spacingLeft=6;fontStyle=5;overflow=hidden;html=1;whiteSpace=wrap;" vertex="1" parent="jGOI9itsK9u4muc4DSMA-37">
          <mxGeometry x="60" width="120" height="30" as="geometry">
            <mxRectangle width="120" height="30" as="alternateBounds" />
          </mxGeometry>
        </mxCell>
        <mxCell id="jGOI9itsK9u4muc4DSMA-40" value="" style="shape=tableRow;horizontal=0;startSize=0;swimlaneHead=0;swimlaneBody=0;fillColor=none;collapsible=0;dropTarget=0;points=[[0,0.5],[1,0.5]];portConstraint=eastwest;top=0;left=0;right=0;bottom=1;html=1;" vertex="1" parent="jGOI9itsK9u4muc4DSMA-33">
          <mxGeometry y="90" width="180" height="30" as="geometry" />
        </mxCell>
        <mxCell id="jGOI9itsK9u4muc4DSMA-41" value="FK" style="shape=partialRectangle;connectable=0;fillColor=none;top=0;left=0;bottom=0;right=0;fontStyle=1;overflow=hidden;html=1;whiteSpace=wrap;" vertex="1" parent="jGOI9itsK9u4muc4DSMA-40">
          <mxGeometry width="60" height="30" as="geometry">
            <mxRectangle width="60" height="30" as="alternateBounds" />
          </mxGeometry>
        </mxCell>
        <mxCell id="jGOI9itsK9u4muc4DSMA-42" value="id_profesor" style="shape=partialRectangle;connectable=0;fillColor=none;top=0;left=0;bottom=0;right=0;align=left;spacingLeft=6;fontStyle=5;overflow=hidden;html=1;whiteSpace=wrap;" vertex="1" parent="jGOI9itsK9u4muc4DSMA-40">
          <mxGeometry x="60" width="120" height="30" as="geometry">
            <mxRectangle width="120" height="30" as="alternateBounds" />
          </mxGeometry>
        </mxCell>
        <mxCell id="jGOI9itsK9u4muc4DSMA-43" value="" style="shape=tableRow;horizontal=0;startSize=0;swimlaneHead=0;swimlaneBody=0;fillColor=none;collapsible=0;dropTarget=0;points=[[0,0.5],[1,0.5]];portConstraint=eastwest;top=0;left=0;right=0;bottom=0;html=1;" vertex="1" parent="jGOI9itsK9u4muc4DSMA-33">
          <mxGeometry y="120" width="180" height="30" as="geometry" />
        </mxCell>
        <mxCell id="jGOI9itsK9u4muc4DSMA-44" value="" style="shape=partialRectangle;connectable=0;fillColor=none;top=0;left=0;bottom=0;right=0;editable=1;overflow=hidden;html=1;whiteSpace=wrap;" vertex="1" parent="jGOI9itsK9u4muc4DSMA-43">
          <mxGeometry width="60" height="30" as="geometry">
            <mxRectangle width="60" height="30" as="alternateBounds" />
          </mxGeometry>
        </mxCell>
        <mxCell id="jGOI9itsK9u4muc4DSMA-45" value="nombre_curso" style="shape=partialRectangle;connectable=0;fillColor=none;top=0;left=0;bottom=0;right=0;align=left;spacingLeft=6;overflow=hidden;html=1;whiteSpace=wrap;" vertex="1" parent="jGOI9itsK9u4muc4DSMA-43">
          <mxGeometry x="60" width="120" height="30" as="geometry">
            <mxRectangle width="120" height="30" as="alternateBounds" />
          </mxGeometry>
        </mxCell>
        <mxCell id="jGOI9itsK9u4muc4DSMA-46" value="" style="shape=tableRow;horizontal=0;startSize=0;swimlaneHead=0;swimlaneBody=0;fillColor=none;collapsible=0;dropTarget=0;points=[[0,0.5],[1,0.5]];portConstraint=eastwest;top=0;left=0;right=0;bottom=0;html=1;" vertex="1" parent="jGOI9itsK9u4muc4DSMA-33">
          <mxGeometry y="150" width="180" height="30" as="geometry" />
        </mxCell>
        <mxCell id="jGOI9itsK9u4muc4DSMA-47" value="" style="shape=partialRectangle;connectable=0;fillColor=none;top=0;left=0;bottom=0;right=0;editable=1;overflow=hidden;html=1;whiteSpace=wrap;" vertex="1" parent="jGOI9itsK9u4muc4DSMA-46">
          <mxGeometry width="60" height="30" as="geometry">
            <mxRectangle width="60" height="30" as="alternateBounds" />
          </mxGeometry>
        </mxCell>
        <mxCell id="jGOI9itsK9u4muc4DSMA-48" value="creditos" style="shape=partialRectangle;connectable=0;fillColor=none;top=0;left=0;bottom=0;right=0;align=left;spacingLeft=6;overflow=hidden;html=1;whiteSpace=wrap;" vertex="1" parent="jGOI9itsK9u4muc4DSMA-46">
          <mxGeometry x="60" width="120" height="30" as="geometry">
            <mxRectangle width="120" height="30" as="alternateBounds" />
          </mxGeometry>
        </mxCell>
        <mxCell id="jGOI9itsK9u4muc4DSMA-49" value="PROFESOR" style="shape=table;startSize=30;container=1;collapsible=1;childLayout=tableLayout;fixedRows=1;rowLines=0;fontStyle=1;align=center;resizeLast=1;html=1;whiteSpace=wrap;" vertex="1" parent="1">
          <mxGeometry x="675" y="560" width="180" height="150" as="geometry" />
        </mxCell>
        <mxCell id="jGOI9itsK9u4muc4DSMA-50" value="" style="shape=tableRow;horizontal=0;startSize=0;swimlaneHead=0;swimlaneBody=0;fillColor=none;collapsible=0;dropTarget=0;points=[[0,0.5],[1,0.5]];portConstraint=eastwest;top=0;left=0;right=0;bottom=0;html=1;" vertex="1" parent="jGOI9itsK9u4muc4DSMA-49">
          <mxGeometry y="30" width="180" height="30" as="geometry" />
        </mxCell>
        <mxCell id="jGOI9itsK9u4muc4DSMA-51" value="PK" style="shape=partialRectangle;connectable=0;fillColor=none;top=0;left=0;bottom=0;right=0;fontStyle=1;overflow=hidden;html=1;whiteSpace=wrap;" vertex="1" parent="jGOI9itsK9u4muc4DSMA-50">
          <mxGeometry width="60" height="30" as="geometry">
            <mxRectangle width="60" height="30" as="alternateBounds" />
          </mxGeometry>
        </mxCell>
        <mxCell id="jGOI9itsK9u4muc4DSMA-52" value="id_profesor" style="shape=partialRectangle;connectable=0;fillColor=none;top=0;left=0;bottom=0;right=0;align=left;spacingLeft=6;fontStyle=5;overflow=hidden;html=1;whiteSpace=wrap;" vertex="1" parent="jGOI9itsK9u4muc4DSMA-50">
          <mxGeometry x="60" width="120" height="30" as="geometry">
            <mxRectangle width="120" height="30" as="alternateBounds" />
          </mxGeometry>
        </mxCell>
        <mxCell id="jGOI9itsK9u4muc4DSMA-53" value="" style="shape=tableRow;horizontal=0;startSize=0;swimlaneHead=0;swimlaneBody=0;fillColor=none;collapsible=0;dropTarget=0;points=[[0,0.5],[1,0.5]];portConstraint=eastwest;top=0;left=0;right=0;bottom=0;html=1;" vertex="1" parent="jGOI9itsK9u4muc4DSMA-49">
          <mxGeometry y="60" width="180" height="30" as="geometry" />
        </mxCell>
        <mxCell id="jGOI9itsK9u4muc4DSMA-54" value="" style="shape=partialRectangle;connectable=0;fillColor=none;top=0;left=0;bottom=0;right=0;editable=1;overflow=hidden;html=1;whiteSpace=wrap;" vertex="1" parent="jGOI9itsK9u4muc4DSMA-53">
          <mxGeometry width="60" height="30" as="geometry">
            <mxRectangle width="60" height="30" as="alternateBounds" />
          </mxGeometry>
        </mxCell>
        <mxCell id="jGOI9itsK9u4muc4DSMA-55" value="nombre" style="shape=partialRectangle;connectable=0;fillColor=none;top=0;left=0;bottom=0;right=0;align=left;spacingLeft=6;overflow=hidden;html=1;whiteSpace=wrap;" vertex="1" parent="jGOI9itsK9u4muc4DSMA-53">
          <mxGeometry x="60" width="120" height="30" as="geometry">
            <mxRectangle width="120" height="30" as="alternateBounds" />
          </mxGeometry>
        </mxCell>
        <mxCell id="jGOI9itsK9u4muc4DSMA-56" value="" style="shape=tableRow;horizontal=0;startSize=0;swimlaneHead=0;swimlaneBody=0;fillColor=none;collapsible=0;dropTarget=0;points=[[0,0.5],[1,0.5]];portConstraint=eastwest;top=0;left=0;right=0;bottom=0;html=1;" vertex="1" parent="jGOI9itsK9u4muc4DSMA-49">
          <mxGeometry y="90" width="180" height="30" as="geometry" />
        </mxCell>
        <mxCell id="jGOI9itsK9u4muc4DSMA-57" value="" style="shape=partialRectangle;connectable=0;fillColor=none;top=0;left=0;bottom=0;right=0;editable=1;overflow=hidden;html=1;whiteSpace=wrap;" vertex="1" parent="jGOI9itsK9u4muc4DSMA-56">
          <mxGeometry width="60" height="30" as="geometry">
            <mxRectangle width="60" height="30" as="alternateBounds" />
          </mxGeometry>
        </mxCell>
        <mxCell id="jGOI9itsK9u4muc4DSMA-58" value="apellido" style="shape=partialRectangle;connectable=0;fillColor=none;top=0;left=0;bottom=0;right=0;align=left;spacingLeft=6;overflow=hidden;html=1;whiteSpace=wrap;" vertex="1" parent="jGOI9itsK9u4muc4DSMA-56">
          <mxGeometry x="60" width="120" height="30" as="geometry">
            <mxRectangle width="120" height="30" as="alternateBounds" />
          </mxGeometry>
        </mxCell>
        <mxCell id="jGOI9itsK9u4muc4DSMA-59" value="" style="shape=tableRow;horizontal=0;startSize=0;swimlaneHead=0;swimlaneBody=0;fillColor=none;collapsible=0;dropTarget=0;points=[[0,0.5],[1,0.5]];portConstraint=eastwest;top=0;left=0;right=0;bottom=0;html=1;" vertex="1" parent="jGOI9itsK9u4muc4DSMA-49">
          <mxGeometry y="120" width="180" height="30" as="geometry" />
        </mxCell>
        <mxCell id="jGOI9itsK9u4muc4DSMA-60" value="" style="shape=partialRectangle;connectable=0;fillColor=none;top=0;left=0;bottom=0;right=0;editable=1;overflow=hidden;html=1;whiteSpace=wrap;" vertex="1" parent="jGOI9itsK9u4muc4DSMA-59">
          <mxGeometry width="60" height="30" as="geometry">
            <mxRectangle width="60" height="30" as="alternateBounds" />
          </mxGeometry>
        </mxCell>
        <mxCell id="jGOI9itsK9u4muc4DSMA-61" value="especialidad" style="shape=partialRectangle;connectable=0;fillColor=none;top=0;left=0;bottom=0;right=0;align=left;spacingLeft=6;overflow=hidden;html=1;whiteSpace=wrap;" vertex="1" parent="jGOI9itsK9u4muc4DSMA-59">
          <mxGeometry x="60" width="120" height="30" as="geometry">
            <mxRectangle width="120" height="30" as="alternateBounds" />
          </mxGeometry>
        </mxCell>
        <mxCell id="jGOI9itsK9u4muc4DSMA-62" value="" style="edgeStyle=entityRelationEdgeStyle;fontSize=12;html=1;endArrow=ERone;endFill=1;rounded=0;entryX=0;entryY=0.5;entryDx=0;entryDy=0;exitX=1;exitY=0.5;exitDx=0;exitDy=0;" edge="1" parent="1" source="jGOI9itsK9u4muc4DSMA-2" target="jGOI9itsK9u4muc4DSMA-21">
          <mxGeometry width="100" height="100" relative="1" as="geometry">
            <mxPoint x="295" y="520" as="sourcePoint" />
            <mxPoint x="395" y="420" as="targetPoint" />
          </mxGeometry>
        </mxCell>
        <mxCell id="jGOI9itsK9u4muc4DSMA-63" value="" style="edgeStyle=entityRelationEdgeStyle;fontSize=12;html=1;endArrow=ERoneToMany;rounded=0;exitX=1;exitY=0.5;exitDx=0;exitDy=0;" edge="1" parent="1" source="jGOI9itsK9u4muc4DSMA-18" target="jGOI9itsK9u4muc4DSMA-37">
          <mxGeometry width="100" height="100" relative="1" as="geometry">
            <mxPoint x="275" y="560" as="sourcePoint" />
            <mxPoint x="375" y="460" as="targetPoint" />
          </mxGeometry>
        </mxCell>
        <mxCell id="jGOI9itsK9u4muc4DSMA-64" value="" style="edgeStyle=entityRelationEdgeStyle;fontSize=12;html=1;endArrow=ERoneToMany;rounded=0;" edge="1" parent="1" source="jGOI9itsK9u4muc4DSMA-24" target="jGOI9itsK9u4muc4DSMA-34">
          <mxGeometry width="100" height="100" relative="1" as="geometry">
            <mxPoint x="505" y="810" as="sourcePoint" />
            <mxPoint x="605" y="710" as="targetPoint" />
          </mxGeometry>
        </mxCell>
        <mxCell id="jGOI9itsK9u4muc4DSMA-65" value="" style="edgeStyle=entityRelationEdgeStyle;fontSize=12;html=1;endArrow=ERoneToMany;rounded=0;entryX=-0.013;entryY=0.744;entryDx=0;entryDy=0;entryPerimeter=0;" edge="1" parent="1" source="jGOI9itsK9u4muc4DSMA-34" target="jGOI9itsK9u4muc4DSMA-50">
          <mxGeometry width="100" height="100" relative="1" as="geometry">
            <mxPoint x="545" y="450" as="sourcePoint" />
            <mxPoint x="645" y="350" as="targetPoint" />
          </mxGeometry>
        </mxCell>
        <mxCell id="jGOI9itsK9u4muc4DSMA-67" value="1:1" style="text;html=1;align=center;verticalAlign=middle;whiteSpace=wrap;rounded=0;" vertex="1" parent="1">
          <mxGeometry x="246.5" y="630" width="60" height="30" as="geometry" />
        </mxCell>
        <mxCell id="jGOI9itsK9u4muc4DSMA-68" value="1:n" style="text;html=1;align=center;verticalAlign=middle;whiteSpace=wrap;rounded=0;" vertex="1" parent="1">
          <mxGeometry x="530" y="600" width="60" height="30" as="geometry" />
        </mxCell>
        <mxCell id="jGOI9itsK9u4muc4DSMA-69" value="n:n" style="text;html=1;align=center;verticalAlign=middle;whiteSpace=wrap;rounded=0;" vertex="1" parent="1">
          <mxGeometry x="600" y="520" width="60" height="30" as="geometry" />
        </mxCell>
      </root>
    </mxGraphModel>
  </diagram>
</mxfile>
